<svg xmlns="http://www.w3.org/2000/svg" viewBox="0 0 108 108"><path d="M41.5,45 V34.5 A3,3 0 0 1 44.5,31.5 H63.5 A3,3 0 0 1 66.5,34.5 V45" fill="none" stroke="#000000" stroke-width="3" stroke-linecap="round" stroke-linejoin="round"/><path d="M45,45 L51,37.5 L55,42 L58,39 L63,45 Z" fill="#000000"/><path d="M57.3,35.5 A2.2,2.2 0 1 0 61.7,35.5 A2.2,2.2 0 1 0 57.3,35.5 Z" fill="#000000"/><path d="M33,56 L26,48 L42,48 L47,56 Z" fill="#000000"/><path d="M75,56 L82,48 L66,48 L61,56 Z" fill="#000000"/><path d="M35,58 H73 A2,2 0 0 1 75,60 V75 A2,2 0 0 1 73,77 H35 A2,2 0 0 1 33,75 V60 A2,2 0 0 1 35,58 Z M36,62 H72 V64.5 H36 Z" fill="#000000" fill-rule="evenodd"/></svg>
